<mxfile host="65bd71144e">
    <diagram id="h0ugOxXqcR4JAMkivIIJ" name="Page-1">
        <mxGraphModel dx="1348" dy="732" grid="0" gridSize="12" guides="1" tooltips="1" connect="1" arrows="1" fold="1" page="1" pageScale="1" pageWidth="850" pageHeight="1100" math="0" shadow="0">
            <root>
                <mxCell id="0"/>
                <mxCell id="1" parent="0"/>
                <mxCell id="26" value="" style="rounded=1;whiteSpace=wrap;html=1;fontSize=13;fillColor=#76608a;strokeColor=#432D57;fontColor=#ffffff;" vertex="1" parent="1">
                    <mxGeometry x="270" y="195" width="360" height="510" as="geometry"/>
                </mxCell>
                <mxCell id="5" value="&lt;font color=&quot;#190033&quot; face=&quot;Verdana&quot; style=&quot;font-size: 16px;&quot;&gt;&lt;b style=&quot;&quot;&gt;&amp;nbsp; &amp;nbsp; &amp;nbsp;User accesses&lt;br&gt;password &lt;br&gt;generator&lt;/b&gt;&lt;/font&gt;" style="rounded=1;whiteSpace=wrap;html=1;fillColor=#76608a;fontColor=#ffffff;strokeColor=#432D57;" vertex="1" parent="1">
                    <mxGeometry x="350" y="60" width="200" height="110" as="geometry"/>
                </mxCell>
                <mxCell id="24" value="Password Customization" style="fontStyle=1;fontSize=13;" vertex="1" parent="1">
                    <mxGeometry x="335.5" y="222.5" width="240" height="40" as="geometry"/>
                </mxCell>
                <mxCell id="14" value="" style="html=1;verticalLabelPosition=bottom;align=center;labelBackgroundColor=#ffffff;verticalAlign=top;strokeWidth=2;strokeColor=#0080F0;shadow=0;dashed=0;shape=mxgraph.ios7.icons.settings;fontSize=13;" vertex="1" parent="1">
                    <mxGeometry x="346.25" y="230" width="20" height="25" as="geometry"/>
                </mxCell>
                <mxCell id="27" value="&amp;nbsp; &amp;nbsp; &amp;nbsp;Adjust slider or&amp;nbsp;&lt;br&gt;&amp;nbsp; &amp;nbsp; &amp;nbsp;input value" style="rounded=1;whiteSpace=wrap;html=1;fontSize=13;" vertex="1" parent="1">
                    <mxGeometry x="335" y="295" width="235" height="100" as="geometry"/>
                </mxCell>
                <mxCell id="11" value="" style="html=1;verticalLabelPosition=bottom;align=center;labelBackgroundColor=#ffffff;verticalAlign=top;strokeWidth=2;strokeColor=#0080F0;shadow=0;dashed=0;shape=mxgraph.ios7.icons.volume;pointerEvents=1;fontSize=13;" vertex="1" parent="1">
                    <mxGeometry x="350" y="330" width="30" height="30" as="geometry"/>
                </mxCell>
                <mxCell id="28" value="&amp;nbsp; &amp;nbsp; &amp;nbsp;Select Character&amp;nbsp;&amp;nbsp;&lt;br&gt;&amp;nbsp; &amp;nbsp; &amp;nbsp;types" style="rounded=1;whiteSpace=wrap;html=1;fontSize=13;" vertex="1" parent="1">
                    <mxGeometry x="338" y="435" width="235" height="100" as="geometry"/>
                </mxCell>
                <mxCell id="21" value="" style="verticalLabelPosition=bottom;verticalAlign=top;html=1;shadow=0;dashed=0;strokeWidth=1;shape=mxgraph.ios.iSortFindIcon;fillColor=#8BbEff;fillColor2=#135Ec8;strokeColor=#ffffff;sketch=0;fontSize=13;" vertex="1" parent="1">
                    <mxGeometry x="347.5" y="465" width="35" height="30" as="geometry"/>
                </mxCell>
                <mxCell id="29" value="Generate&amp;nbsp;&lt;br&gt;Password" style="html=1;dashed=0;whitespace=wrap;shape=mxgraph.dfd.start;fontSize=13;" vertex="1" parent="1">
                    <mxGeometry x="346.25" y="565" width="212.5" height="90" as="geometry"/>
                </mxCell>
                <mxCell id="13" value="" style="html=1;verticalLabelPosition=bottom;align=center;labelBackgroundColor=#ffffff;verticalAlign=top;strokeWidth=2;strokeColor=#0080F0;shadow=0;dashed=0;shape=mxgraph.ios7.icons.locked;fontSize=13;" vertex="1" parent="1">
                    <mxGeometry x="382.5" y="595" width="24" height="30" as="geometry"/>
                </mxCell>
                <mxCell id="31" value="" style="outlineConnect=0;dashed=0;verticalLabelPosition=bottom;verticalAlign=top;align=center;html=1;shape=mxgraph.aws3.user;fillColor=#fa6800;fontColor=#000000;strokeColor=#C73500;movable=1;resizable=1;rotatable=1;deletable=1;editable=1;connectable=1;" vertex="1" parent="1">
                    <mxGeometry x="360" y="95" width="30" height="40" as="geometry"/>
                </mxCell>
                <mxCell id="35" value="" style="endArrow=classic;html=1;fontSize=14;strokeWidth=3;" edge="1" parent="1">
                    <mxGeometry width="50" height="50" relative="1" as="geometry">
                        <mxPoint x="449.29" y="535" as="sourcePoint"/>
                        <mxPoint x="449" y="562" as="targetPoint"/>
                    </mxGeometry>
                </mxCell>
                <mxCell id="36" value="" style="endArrow=classic;html=1;fontSize=14;strokeWidth=3;" edge="1" parent="1">
                    <mxGeometry width="50" height="50" relative="1" as="geometry">
                        <mxPoint x="449.29" y="395" as="sourcePoint"/>
                        <mxPoint x="449" y="430" as="targetPoint"/>
                    </mxGeometry>
                </mxCell>
                <mxCell id="37" value="" style="endArrow=classic;html=1;fontSize=14;strokeWidth=3;" edge="1" parent="1">
                    <mxGeometry width="50" height="50" relative="1" as="geometry">
                        <mxPoint x="449.29" y="173" as="sourcePoint"/>
                        <mxPoint x="449.29" y="295" as="targetPoint"/>
                    </mxGeometry>
                </mxCell>
            </root>
        </mxGraphModel>
    </diagram>
</mxfile>